<?xml version="1.0" encoding="UTF-8"?>
<svg version="1.1" xmlns="http://www.w3.org/2000/svg" width="1900" height="420">
<path d="M0 0 C1.29474243 -0.00630432 2.58948486 -0.01260864 3.92346191 -0.019104 C5.34285619 -0.01552433 6.76224924 -0.0114224 8.18164062 -0.00683594 C9.63130763 -0.00818263 11.08097419 -0.0101232 12.53063965 -0.01263428 C15.57043758 -0.01558536 18.61011805 -0.0112885 21.64990234 -0.00195312 C25.55083311 0.0094415 29.4514887 0.00288193 33.35240936 -0.00909805 C36.346355 -0.01631715 39.34023515 -0.01402852 42.33418274 -0.00884247 C43.77273084 -0.0075061 45.21128484 -0.00915324 46.64982605 -0.01380157 C48.65847666 -0.01886734 50.66714806 -0.00978038 52.67578125 0 C53.82002563 0.00159119 54.96427002 0.00318237 56.14318848 0.00482178 C58.83789062 0.25878906 58.83789062 0.25878906 60.83789062 2.25878906 C61.05579333 5.20968116 61.14934041 8.06943843 61.15673828 11.02294922 C61.17180672 12.38401039 61.17180672 12.38401039 61.18717957 13.77256775 C61.21814644 16.78098905 61.2350841 19.78932084 61.25195312 22.79785156 C61.27065392 24.880084 61.2902265 26.96230878 61.31063843 29.04452515 C61.36208066 34.53209933 61.40164155 40.01969812 61.43878174 45.50738525 C61.47874575 51.10426988 61.52987268 56.70105109 61.58007812 62.29785156 C61.67698051 73.28475822 61.76133932 84.27172309 61.83789062 95.25878906 C62.83804199 94.85176758 63.83819336 94.44474609 64.86865234 94.02539062 C66.20990395 93.48325743 67.55121578 92.94127321 68.89257812 92.39941406 C69.54830811 92.13209473 70.20403809 91.86477539 70.87963867 91.58935547 C102.79562109 78.72857143 137.2788882 80.64530924 168.83789062 93.25878906 C199.08928679 106.41749868 222.58961939 131.8120921 234.83789062 162.25878906 C246.13555247 192.13982082 246.01339439 226.42443253 232.91210938 255.76660156 C231.04802241 259.68962619 229.00302209 263.49460881 226.83789062 267.25878906 C226.26039063 268.26296875 225.68289063 269.26714844 225.08789062 270.30175781 C209.87898657 295.26266748 186.88886677 313.71322554 159.33789062 323.07128906 C158.52046387 323.3494043 157.70303711 323.62751953 156.86083984 323.9140625 C143.84161824 328.10327705 131.19237316 329.82098661 117.58789062 329.69628906 C116.86833191 329.69291534 116.14877319 329.68954163 115.40740967 329.68606567 C103.83472231 329.60773547 92.92087393 328.76710755 81.83789062 325.25878906 C81.05849121 325.01741211 80.2790918 324.77603516 79.47607422 324.52734375 C58.17405731 317.74652155 30.56206149 303.81624593 19.22667122 283.34965515 C15.69733688 277.30390865 15.69733688 277.30390865 9.99396849 273.56666756 C4.49024631 272.46148166 -1.11497067 272.73715181 -6.69775391 272.86816406 C-8.57933236 272.86823498 -10.46091742 272.86296096 -12.34246826 272.85276794 C-17.43440371 272.83970993 -22.52317914 272.89966914 -27.6145196 272.97185898 C-32.9496639 273.03380942 -38.28465277 273.02443939 -43.62008667 273.02172852 C-53.72326756 273.02665511 -63.82516268 273.08915452 -73.92794597 273.17534542 C-92.02335885 273.32786047 -110.11921402 273.38275278 -128.21519554 273.41613197 C-134.56355356 273.43012679 -140.91111685 273.46937188 -147.25919747 273.52983761 C-151.208075 273.5643447 -155.15692444 273.58298504 -159.10591888 273.59810066 C-160.934907 273.60873315 -162.76387009 273.62633941 -164.59271622 273.65148735 C-167.09270394 273.68509929 -169.59164251 273.69394109 -172.09182739 273.69702148 C-172.8123605 273.71296734 -173.5328936 273.72891319 -174.27526104 273.74534225 C-180.81055559 273.70628481 -184.95410307 271.41017982 -189.59960938 266.88378906 C-192.19025741 260.87348563 -192.63637035 253.37318067 -190.39648438 247.12207031 C-187.8644973 243.1331859 -184.56906615 240.72777465 -180.16210938 239.25878906 C-177.81636781 239.15446144 -175.46773648 239.11226906 -173.1197052 239.10057068 C-172.39843671 239.0956327 -171.67716822 239.09069472 -170.93404311 239.08560711 C-168.51112549 239.07021825 -166.08823439 239.06186774 -163.6652832 239.0534668 C-161.93087022 239.04388936 -160.19645957 239.03387936 -158.46205139 239.02346802 C-153.74751832 238.99639829 -149.03297522 238.97539992 -144.3184073 238.95546603 C-139.39362392 238.93361924 -134.46887154 238.90622416 -129.54411316 238.87940979 C-120.21566423 238.82946522 -110.88719811 238.78453293 -101.55871552 238.74138743 C-90.93972234 238.69203013 -80.32076025 238.63710641 -69.70179713 238.58170784 C-47.85526351 238.46786071 -26.0087002 238.36102761 -4.16210938 238.25878906 C-4.37867188 237.30617187 -4.59523437 236.35355469 -4.81835938 235.37207031 C-5.23601562 233.49068359 -5.23601562 233.49068359 -5.66210938 231.57128906 C-6.07976562 229.70923828 -6.07976562 229.70923828 -6.50585938 227.80957031 C-7.05565064 224.83480689 -7.30006642 222.26510304 -7.16210938 219.25878906 C-7.87294741 219.26247623 -8.58378544 219.26616341 -9.31616402 219.26996231 C-26.61783146 219.35832576 -43.91944154 219.42450466 -61.22128487 219.46603775 C-69.58836092 219.48665706 -77.95528629 219.5147655 -86.32226562 219.56054688 C-93.61551066 219.60043408 -100.90864656 219.62622647 -108.20199764 219.63514304 C-112.06330112 219.64035465 -115.9242924 219.65259032 -119.78549576 219.68170929 C-123.4216674 219.7089084 -127.05739894 219.71722515 -130.69366264 219.71121979 C-132.66065465 219.71284074 -134.62759898 219.73434005 -136.59446716 219.75646973 C-147.36320376 219.70619564 -147.36320376 219.70619564 -152.16210938 215.25878906 C-156.44530447 210.39678382 -157.40629389 205.58805169 -157.16210938 199.25878906 C-156.30796783 194.84446464 -154.95482212 192.03117584 -151.72460938 188.88378906 C-147.38482684 186.13173184 -144.69680922 185.00872551 -139.4800415 185.01828003 C-137.74268486 185.01415604 -137.74268486 185.01415604 -135.9702301 185.00994873 C-134.07022499 185.02073456 -134.07022499 185.02073456 -132.13183594 185.03173828 C-130.78150949 185.03230256 -129.43118242 185.0319855 -128.08085632 185.03085327 C-124.41793307 185.03027942 -120.75514078 185.04203895 -117.09224796 185.05600119 C-113.26322659 185.06850313 -109.43420221 185.06967862 -105.60516357 185.072052 C-98.35561932 185.07826835 -91.10613538 185.09468125 -83.85661769 185.11475098 C-75.60276059 185.13710517 -67.34890061 185.1481022 -59.09502077 185.15814185 C-42.11734777 185.17904735 -25.13973725 185.21462917 -8.16210938 185.25878906 C-8.16210938 178.98878906 -8.16210938 172.71878906 -8.16210938 166.25878906 C-11.14951172 166.27449951 -14.13691406 166.29020996 -17.21484375 166.30639648 C-27.09744817 166.35615891 -36.9800582 166.38926468 -46.86275482 166.41422558 C-52.85323223 166.42986546 -58.84358099 166.45107336 -64.83398438 166.48510742 C-70.61763266 166.51776029 -76.40115738 166.5356547 -82.18489075 166.54342079 C-84.38883915 166.54895362 -86.59278098 166.55975789 -88.79667664 166.57597923 C-91.88933805 166.59783196 -94.98149225 166.60075267 -98.07421875 166.59936523 C-98.9805304 166.61015106 -99.88684204 166.62093689 -100.82061768 166.63204956 C-107.53087151 166.59958519 -113.5822549 165.83864354 -118.53710938 160.88378906 C-122.14457211 155.05634926 -123.01406363 150.07442307 -122.16210938 143.25878906 C-120.38181215 137.91789739 -117.02580275 134.94934284 -112.16210938 132.25878906 C-109.40722513 131.34049431 -107.80278722 131.13501182 -104.96699524 131.13853455 C-103.68606491 131.13647255 -103.68606491 131.13647255 -102.3792572 131.1343689 C-101.44561844 131.13796417 -100.51197968 131.14155945 -99.55004883 131.14526367 C-98.07172577 131.14504463 -98.07172577 131.14504463 -96.5635376 131.14482117 C-93.30079967 131.14551872 -90.0381186 131.15330379 -86.77539062 131.16113281 C-84.51523368 131.16299755 -82.25507632 131.16442119 -79.99491882 131.16542053 C-74.04205207 131.1692413 -68.08920966 131.17906787 -62.13635254 131.19012451 C-56.06356129 131.20034807 -49.99076612 131.20492018 -43.91796875 131.20996094 C-31.99933825 131.2206905 -20.08072584 131.23776168 -8.16210938 131.25878906 C-8.16395296 130.59580118 -8.16579655 129.9328133 -8.167696 129.24973488 C-8.2118216 113.13445871 -8.24493987 97.01920161 -8.26573372 80.90387917 C-8.27605616 73.11070209 -8.29013492 65.31756529 -8.31298828 57.52441406 C-8.3328926 50.73368153 -8.34581876 43.94297816 -8.35028636 37.15221727 C-8.35289878 33.55494922 -8.35905903 29.95776459 -8.37356949 26.36052322 C-8.38961844 22.34952305 -8.39009097 18.33866887 -8.38916016 14.32763672 C-8.39635071 13.128582 -8.40354126 11.92952728 -8.41094971 10.69413757 C-8.40820038 9.60596237 -8.40545105 8.51778717 -8.40261841 7.39663696 C-8.40446199 6.44719019 -8.40630558 5.49774342 -8.40820503 4.51952553 C-7.84895699 -0.61795819 -4.27678493 0.0059473 0 0 Z M72.83789062 171.25878906 C62.94802828 184.15016833 59.91341026 197.23446273 60.83789062 213.25878906 C63.12428465 228.91477528 71.23219356 241.83377253 83.64257812 251.42675781 C97.67955674 260.75160622 112.15284266 263.68796183 128.83789062 261.25878906 C144.29947633 257.69357277 157.55668947 248.24157567 166.30273438 235.00878906 C173.55702263 222.01382995 175.97953885 207.7376282 172.71289062 193.13378906 C168.28413709 177.81599015 159.3618345 165.72194996 145.52148438 157.65332031 C120.58826625 144.69675718 91.3346947 149.60265684 72.83789062 171.25878906 Z " fill="#E300FF" transform="translate(191.162109375,-0.2587890625)"/>
<path d="M0 0 C0.71706116 0.00337372 1.43412231 0.00674744 2.1729126 0.01022339 C13.72649726 0.08864138 24.62299511 0.93503085 35.6875 4.4375 C36.46689941 4.67887695 37.24629883 4.92025391 38.04931641 5.16894531 C70.19412683 15.40122731 97.16929452 37.39316868 112.90014648 67.39868164 C127.697523 97.41248222 129.80099634 131.48662704 119.5 163.1875 C113.37849844 181.0797372 103.65056845 195.68947065 90.6875 209.4375 C90.02492188 210.17613281 89.36234375 210.91476562 88.6796875 211.67578125 C74.77959645 226.55363536 55.02102116 236.68859053 35.6875 242.4375 C34.72626221 242.73164795 34.72626221 242.73164795 33.74560547 243.03173828 C5.9030726 251.21914335 -24.91577754 247.42305632 -51.3125 236.4375 C-52.97846067 235.76907105 -54.64500263 235.10208614 -56.3125 234.4375 C-56.30805878 235.69839447 -56.30361755 236.95928894 -56.29904175 238.25839233 C-56.25856556 250.11897174 -56.22854928 261.9795372 -56.20887566 273.84016991 C-56.19842139 279.93839767 -56.18423228 286.03656986 -56.16162109 292.13476562 C-56.13995123 298.01563694 -56.12794377 303.89645467 -56.12274551 309.77736282 C-56.1190392 312.02533436 -56.11180212 314.27330285 -56.10103989 316.52125168 C-56.0866028 319.66055479 -56.08451879 322.79963409 -56.08544922 325.93896484 C-56.07825867 326.87619888 -56.07106812 327.81343292 -56.06365967 328.77906799 C-56.066409 329.63164688 -56.06915833 330.48422577 -56.07199097 331.36264038 C-56.07014738 332.10560553 -56.06830379 332.84857067 -56.06640434 333.61404991 C-56.3125 335.4375 -56.3125 335.4375 -58.3125 337.4375 C-61.00720215 337.69819641 -61.00720215 337.69819641 -64.47460938 337.7121582 C-65.76935181 337.72169022 -67.06409424 337.73122223 -68.39807129 337.74104309 C-69.81746447 337.7407817 -71.23685766 337.73984482 -72.65625 337.73828125 C-74.1059176 337.74216644 -75.55558405 337.74650074 -77.00524902 337.75126648 C-80.04504078 337.75873394 -83.08471641 337.75843341 -86.12451172 337.75317383 C-90.02553157 337.74737464 -93.92607732 337.76431795 -97.82701874 337.7875185 C-100.8209716 337.80222838 -103.81480952 337.8031314 -106.80879211 337.80000877 C-108.24734945 337.80052325 -109.68591301 337.80578464 -111.12443542 337.81582069 C-113.13305053 337.82811497 -115.14176114 337.81947764 -117.15039062 337.80981445 C-118.8667572 337.81075859 -118.8667572 337.81075859 -120.61779785 337.8117218 C-121.50704956 337.68822861 -122.39630127 337.56473541 -123.3125 337.4375 C-125.89615389 333.56201917 -125.59357064 330.35333176 -125.57319641 325.85926819 C-125.57702196 324.97243471 -125.58084751 324.08560123 -125.58478898 323.17189401 C-125.59514214 320.18753448 -125.59112221 317.20336654 -125.5871582 314.21899414 C-125.59150389 312.08354005 -125.59668655 309.94808752 -125.60264587 307.81263733 C-125.61607529 301.99759049 -125.61660924 296.18260851 -125.61408257 290.36754918 C-125.61301366 285.50549116 -125.61789518 280.64344629 -125.622688 275.78139108 C-125.63380078 264.2928087 -125.63421329 252.80425899 -125.62817383 241.31567383 C-125.6221572 229.50021999 -125.63438196 217.68488593 -125.6557439 205.86945254 C-125.67343428 195.70779703 -125.67934884 185.54617935 -125.67610615 175.38450903 C-125.674302 169.32414244 -125.67684041 163.26386092 -125.69082069 157.20350838 C-125.7035125 151.4866405 -125.70134892 145.76995651 -125.68840981 140.05309105 C-125.68606744 137.97000183 -125.68869318 135.88689922 -125.69703293 133.80382538 C-125.83851152 95.6720652 -115.49923018 62.96501092 -88.3125 35.4375 C-64.72560696 11.81540264 -33.23626182 -0.30652871 0 0 Z M-44.3125 88.4375 C-54.0892043 100.79539567 -57.19648075 114.96783683 -56.3125 130.4375 C-54.02903329 146.09279294 -45.9167615 159.01359313 -33.5078125 168.60546875 C-19.47083388 177.93031715 -4.99754797 180.86667276 11.6875 178.4375 C27.15317816 174.87134004 40.39581297 165.419357 49.15234375 152.19140625 C56.81755605 138.44083457 59.08774069 123.31164835 55.0625 108.0625 C50.40075801 93.73617095 40.77159745 81.9579783 27.6875 74.4375 C2.2792512 61.63119765 -25.28991858 67.54940539 -44.3125 88.4375 Z " fill="#E300FF" transform="translate(1292.3125,82.5625)"/>
<path d="M0 0 C0.71994141 0.21430664 1.43988281 0.42861328 2.18164062 0.64941406 C34.28857272 10.40072368 60.46431586 32.40006427 76.30053711 61.90185547 C88.86829449 86.40670834 90.47787392 111.06115068 90.37004495 138.21279764 C90.3585435 141.79655786 90.36285097 145.38030737 90.36479187 148.96408081 C90.365667 154.95640831 90.35474313 160.94862094 90.33618164 166.94091797 C90.3148511 173.86685193 90.31154547 180.79262014 90.3177436 187.71858037 C90.32342769 194.41419415 90.31781412 201.1097497 90.30657005 207.80535507 C90.30192906 210.6450394 90.30104779 213.48468806 90.3031559 216.32437515 C90.30538145 220.26855964 90.29096579 224.21258471 90.2746582 228.15673828 C90.27713562 229.33372284 90.27961304 230.5107074 90.28216553 231.72335815 C90.27508072 232.79104431 90.26799591 233.85873047 90.26069641 234.95877075 C90.25761711 236.35503787 90.25761711 236.35503787 90.25447559 237.77951241 C90 240 90 240 88 242 C85.30529785 242.25396729 85.30529785 242.25396729 81.83789062 242.25878906 C80.54314819 242.26509338 79.24840576 242.27139771 77.91442871 242.27789307 C76.49503443 242.27431339 75.07564138 242.27021146 73.65625 242.265625 C72.206583 242.26697169 70.75691643 242.26891226 69.30725098 242.27142334 C66.26745305 242.27437442 63.22777257 242.27007756 60.18798828 242.26074219 C56.28705751 242.24934756 52.38640193 242.25590713 48.48548126 242.26788712 C45.49153562 242.27510621 42.49765547 242.27281758 39.50370789 242.26763153 C38.06515979 242.26629517 36.62660579 242.2679423 35.18806458 242.27259064 C33.17941396 242.2776564 31.17074257 242.26856944 29.16210938 242.25878906 C28.01786499 242.25719788 26.87362061 242.25560669 25.69470215 242.25396729 C23 242 23 242 21 240 C20.8046875 237.6171875 20.8046875 237.6171875 20.875 234.875 C20.89304687 233.96492187 20.91109375 233.05484375 20.9296875 232.1171875 C20.95289063 231.41851562 20.97609375 230.71984375 21 230 C20.13761719 230.37511719 19.27523438 230.75023437 18.38671875 231.13671875 C-9.16382611 242.7996423 -42.01482062 247.17525886 -71 238 C-71.77939941 237.75862305 -72.55879883 237.51724609 -73.36181641 237.26855469 C-105.39383622 227.07217601 -132.10093072 205.10090687 -147.89453125 175.30859375 C-162.97368742 145.37843921 -165.13833257 111.0063736 -154.8125 79.25 C-144.12751081 48.18951054 -121.3356851 22.38979044 -91.8671875 7.77734375 C-85.10295497 4.58839272 -78.1611911 2.13168849 -71 0 C-70.31615234 -0.21172852 -69.63230469 -0.42345703 -68.92773438 -0.64160156 C-47.71985013 -6.95990891 -21.0810307 -6.52697322 0 0 Z M-80 84 C-89.7767043 96.35789567 -92.88398075 110.53033683 -92 126 C-89.71653329 141.65529294 -81.6042615 154.57609313 -69.1953125 164.16796875 C-55.15833388 173.49281715 -40.68504797 176.42917276 -24 174 C-8.53432184 170.43384004 4.70831297 160.981857 13.46484375 147.75390625 C21.13005605 134.00333457 23.40024069 118.87414835 19.375 103.625 C14.71325801 89.29867095 5.08409745 77.5204783 -8 70 C-33.4082488 57.19369765 -60.97741858 63.11190539 -80 84 Z " fill="#E300FF" transform="translate(1592,87)"/>
<path d="M0 0 C0.79434543 0.00446144 1.58869085 0.00892289 2.40710735 0.01351953 C3.66937161 0.00883955 3.66937161 0.00883955 4.95713615 0.00406504 C7.79315038 -0.00394897 10.62895265 0.00242186 13.46496868 0.00869775 C15.49155077 0.00598939 17.51813188 0.00242934 19.54471111 -0.00192237 C25.06110436 -0.01106717 30.5774231 -0.00749352 36.09381771 -0.0011642 C41.85580178 0.003885 47.61777929 -0.00079263 53.3797636 -0.00393653 C63.05759106 -0.00757933 72.73538803 -0.00276884 82.41321087 0.00674462 C93.61606794 0.01762976 104.81885223 0.01410441 116.02170753 0.00309181 C125.625103 -0.00597212 135.22847649 -0.00727073 144.83187485 -0.00203085 C150.57419879 0.00109378 156.31648847 0.00148472 162.05881023 -0.00510383 C167.45629963 -0.01086368 172.8536948 -0.00690543 178.25117397 0.00468469 C180.23700459 0.00733858 182.22284309 0.00655384 184.20867062 0.00215936 C186.90985315 -0.00326889 189.61072972 0.00350469 192.31189251 0.01351953 C193.10623794 0.00905808 193.90058336 0.00459664 194.71899986 0 C200.13119984 0.03918672 200.13119984 0.03918672 202.35949993 2.26748681 C202.66730022 4.56668115 202.66730022 4.56668115 202.74524212 7.47647119 C202.77736797 8.56520532 202.80949383 9.65393945 202.84259319 10.77566552 C202.93164862 15.78202934 203.0137027 20.7878584 203.05969524 25.79483056 C203.09272333 28.42930575 203.14718528 31.06360506 203.22375774 33.69717431 C203.33383001 37.50280339 203.37712107 41.30422599 203.40637493 45.11123681 C203.45171368 46.27828149 203.49705242 47.44532617 203.54376507 48.64773583 C203.50860487 55.51900712 202.44131931 58.91102829 197.51672649 63.83584619 C195.80574304 65.32242485 194.08721288 66.80038474 192.35949993 68.26748681 C191.14405605 69.59662931 189.94988763 70.94623338 188.79699993 72.32998681 C185.56880135 76.10508021 182.08150729 79.56199307 178.54699993 83.04873681 C176.56229651 85.06179313 174.69853077 87.12195084 172.85949993 89.26748681 C169.60785365 93.06107414 166.10236899 96.54141328 162.54699993 100.04873681 C160.56229651 102.06179313 158.69853077 104.12195084 156.85949993 106.26748681 C153.60905342 110.0596744 150.10500424 113.53884212 146.55090618 117.04483056 C143.93848925 119.69450121 141.52647372 122.47921484 139.10559368 125.30264306 C136.63346575 128.08447829 133.97519446 130.66124632 131.32434368 133.27139306 C129.43719249 135.18855858 127.67264618 137.16324003 125.92199993 139.20498681 C123.35284723 142.19550397 120.66632737 144.99865365 117.85949993 147.76748681 C115.07328853 150.51604671 112.40641601 153.29608472 109.85949993 156.26748681 C106.60905342 160.0596744 103.10500424 163.53884212 99.55090618 167.04483056 C96.98375847 169.64858644 94.60906479 172.37987092 92.23449993 175.15811181 C90.27728339 177.35998042 88.2362233 179.43928128 86.14465618 181.51358056 C85.43317425 182.22055078 84.72169231 182.92752099 83.98865032 183.65591455 C83.45103069 184.18773339 82.91341106 184.71955224 82.35949993 185.26748681 C83.25983188 185.27106934 83.25983188 185.27106934 84.17835236 185.27472425 C98.7752728 185.33383049 113.37204422 185.40935233 127.96878052 185.50320172 C135.02763471 185.54818956 142.08643811 185.58759719 149.1453886 185.61392236 C155.95357522 185.63932794 162.76152699 185.6802123 169.5695734 185.73067307 C172.17114941 185.74739945 174.77276446 185.75887763 177.37438679 185.76510072 C181.00939665 185.774679 184.64382204 185.8026636 188.27868938 185.83511376 C189.36193996 185.83367867 190.44519054 185.83224359 191.5612669 185.83076501 C192.54984692 185.84330316 193.53842693 185.8558413 194.55696392 185.86875939 C195.41699677 185.87336836 196.27702963 185.87797732 197.16312408 185.88272595 C199.84420674 186.35239769 200.73546522 187.11775024 202.35949993 189.26748681 C202.74045086 191.58218408 202.74045086 191.58218408 202.74768353 194.33389306 C202.75714001 195.36506249 202.76659649 196.39623193 202.77633953 197.45864892 C202.76723049 199.12746118 202.76723049 199.12746118 202.75793743 200.82998681 C202.7622427 202.54423852 202.7622427 202.54423852 202.76663494 204.29312158 C202.7686775 206.71068846 202.76313431 209.1282718 202.75061321 211.54580712 C202.73456314 215.25288766 202.75045634 218.95887781 202.76965618 222.66592431 C202.76767378 225.01228089 202.76383019 227.35863679 202.75793743 229.70498681 C202.76401012 230.81752831 202.77008282 231.93006982 202.77633953 233.0763247 C202.76215481 234.62307885 202.76215481 234.62307885 202.74768353 236.20108056 C202.74529675 237.10914453 202.74290997 238.01720849 202.74045086 238.95278955 C202.35949993 241.26748681 202.35949993 241.26748681 201.34101582 242.88876653 C198.22944089 245.05377136 194.93135103 244.67615211 191.27429485 244.64170861 C190.44080359 244.64568302 189.60731234 244.64965742 188.74856377 244.65375227 C185.94552711 244.66340464 183.14299147 244.65153948 180.33996868 244.63980126 C178.33456515 244.64222826 176.32916282 244.64594668 174.32376385 244.65086389 C168.86930426 244.66028913 163.41502361 244.6508337 157.96057796 244.63753176 C152.26046239 244.62623749 146.56035589 244.6303232 140.86023235 244.63227868 C131.28671619 244.6331623 121.71327075 244.6220671 112.13977337 244.60366845 C101.06131116 244.58249982 89.98295259 244.57899056 78.90447426 244.58523041 C68.26045071 244.59091931 57.61646376 244.585284 46.97244549 244.57405686 C42.43661099 244.56940459 37.90079882 244.56853974 33.36496258 244.57064271 C28.02654413 244.57252231 22.6882316 244.56444705 17.3498373 244.54858232 C15.38700454 244.54432914 13.42416105 244.54349581 11.46132565 244.54627252 C8.78900138 244.54948014 6.11699643 244.54044847 3.44470501 244.52818322 C2.66173644 244.53196255 1.87876787 244.53574187 1.07207298 244.53963572 C-2.70716928 244.50879737 -4.41578664 244.41729576 -7.64050007 242.26748681 C-8.075284 239.98175073 -8.075284 239.98175073 -8.15563679 237.09024072 C-8.1909148 236.00796197 -8.22619282 234.92568322 -8.26253986 233.81060815 C-8.28156361 232.63364373 -8.30058735 231.45667932 -8.32018757 230.24404931 C-8.34203114 229.03236077 -8.3638747 227.82067224 -8.3863802 226.57226586 C-8.42355955 223.99829308 -8.45151422 221.42417338 -8.47106647 218.85000634 C-8.5149579 214.94077547 -8.63360314 211.03828984 -8.75378132 207.13076806 C-9.1178246 186.15674181 -9.1178246 186.15674181 -3.03893757 179.43154931 C-1.50338598 178.14039706 0.03561317 176.85059391 1.63653851 175.64144921 C4.95171559 172.99778662 7.79785651 169.84910504 10.75012493 166.81436181 C12.04662197 165.51970189 13.34612763 164.22804814 14.64856243 162.93936181 C15.29986126 162.29418603 15.95116009 161.64901025 16.62219524 160.98428369 C17.60591106 160.01071923 17.60591106 160.01071923 18.60949993 159.01748681 C21.24273211 156.41113741 23.87241387 153.80127619 26.50012493 151.18936181 C27.3784901 150.32344415 27.3784901 150.32344415 28.27460003 149.4400332 C31.24054591 146.49144007 34.07646017 143.48370839 36.80969524 140.3172915 C40.36634882 136.20413539 44.14808263 132.36804947 48.01574993 128.54873681 C49.07469463 127.49547204 49.07469463 127.49547204 50.15503216 126.42092919 C53.13847368 123.45364915 56.12790703 120.49243318 59.11682415 117.5306704 C61.31440572 115.35130216 63.50887931 113.16883734 65.70324993 110.98623681 C66.36699627 110.33078881 67.03074261 109.67534081 67.71460247 109.00003076 C70.88043157 105.85060388 73.93269499 102.65762223 76.85071087 99.27627587 C80.43448901 95.12467572 84.25588741 91.26073916 88.15637493 87.40811181 C89.22954967 86.340617 89.22954967 86.340617 90.32440472 85.25155663 C92.5836634 83.0043944 94.84615926 80.76053713 97.10949993 78.51748681 C100.10718582 75.54642448 103.10152099 72.57204312 106.09387493 69.59561181 C106.77826641 68.91951867 107.46265789 68.24342553 108.16778851 67.54684472 C108.80565289 66.91228356 109.44351727 66.27772241 110.10071087 65.62393212 C110.65917706 65.07070275 111.21764324 64.51747338 111.79303265 63.94747949 C113.46952498 62.149488 114.89831317 60.24235158 116.35949993 58.26748681 C115.73258818 58.26417666 115.10567642 58.26086652 114.45976734 58.25745606 C99.22064431 58.17631119 83.98162999 58.08424699 68.74265003 57.97995973 C61.37325533 57.92979222 54.00387198 57.8833499 46.63440228 57.84561181 C40.21277298 57.81271811 33.79123075 57.77290163 27.36969745 57.72469676 C23.96808952 57.69940548 20.56653954 57.67763214 17.16486263 57.66414285 C13.37170326 57.64736306 9.57882644 57.61834819 5.78576946 57.58633447 C4.08537014 57.58309419 4.08537014 57.58309419 2.35061932 57.57978845 C1.32134319 57.56862496 0.29206707 57.55746148 -0.76839924 57.54595971 C-1.66622561 57.54042895 -2.56405197 57.5348982 -3.4890852 57.52919984 C-5.64050007 57.26748681 -5.64050007 57.26748681 -7.64050007 55.26748681 C-7.89446735 53.02835107 -7.89446735 53.02835107 -7.89928913 50.20693994 C-7.90874561 48.62519982 -7.90874561 48.62519982 -7.91839314 47.01150537 C-7.91434467 45.86879174 -7.91029621 44.72607812 -7.90612507 43.54873681 C-7.90803852 42.37991967 -7.90995197 41.21110253 -7.91192341 40.00686669 C-7.91328633 37.53205168 -7.90958248 35.05722955 -7.90124226 32.58242822 C-7.89054452 28.78327476 -7.90113425 24.98459422 -7.91393757 21.18545556 C-7.91261599 18.78571493 -7.91005364 16.38597459 -7.90612507 13.98623681 C-7.91017353 12.84352319 -7.91422199 11.70080956 -7.91839314 10.52346826 C-7.91208881 9.46897485 -7.90578449 8.41448144 -7.89928913 7.32803369 C-7.89769794 6.39696801 -7.89610676 5.46590234 -7.89446735 4.50662255 C-7.33977362 -0.38390723 -4.17166206 0.03020468 0 0 Z " fill="#E300FF" transform="translate(945.6405000686646,80.7325131893158)"/>
<path d="M0 0 C1.27156952 -0.01283524 2.54313904 -0.02567047 3.85324097 -0.03889465 C5.25257989 -0.04706112 6.65192318 -0.05450503 8.05126953 -0.0612793 C8.75269199 -0.06535482 9.45411446 -0.06943035 10.17679214 -0.07362938 C13.88901731 -0.09450608 17.60120534 -0.10880098 21.31347656 -0.11816406 C25.15284842 -0.1292341 28.99164155 -0.16363526 32.83080864 -0.20333576 C35.7784637 -0.22945058 38.72597981 -0.23785124 41.67374039 -0.24144554 C43.08917272 -0.24632464 44.50459832 -0.25797629 45.91991806 -0.27648354 C47.8995958 -0.30076183 49.87955358 -0.29750136 51.859375 -0.29296875 C52.98665009 -0.29883499 54.11392517 -0.30470123 55.27536011 -0.31074524 C58.05908203 0.17700195 58.05908203 0.17700195 59.79318237 1.85012817 C61.222818 4.47796809 62.40196757 7.09781789 63.51318359 9.87695312 C63.98007095 11.03602173 64.44695831 12.19509033 64.92799377 13.38928223 C65.43532822 14.66613997 65.94256279 15.9430374 66.44970703 17.2199707 C66.98794282 18.56226778 67.52672849 19.90434447 68.06602478 21.24621582 C69.21898039 24.11820468 70.36821311 26.99164387 71.51449585 29.86630249 C73.3144079 34.38012769 75.12217652 38.89077784 76.93139648 43.40087891 C78.78798158 48.03018643 80.64397114 52.65972851 82.49702454 57.29045105 C88.21167011 71.57101465 93.96380728 85.83630487 99.72521973 100.09805298 C102.14411255 106.08595667 104.5603406 112.07493585 106.97705078 118.0637207 C108.33766722 121.43483893 109.69835899 124.80592675 111.05908203 128.17700195 C114.65270249 121.32524975 117.51963491 114.26609637 120.36376953 107.07543945 C120.88100854 105.77562593 121.39861138 104.47595715 121.91654968 103.17642212 C123.01923777 100.40827711 124.12001605 97.63938403 125.2192688 94.86987305 C128.12131799 87.55965099 131.03794833 80.25523883 133.95361328 72.95043945 C134.24897161 72.21018272 134.54432995 71.46992599 134.84863853 70.70723724 C140.57292639 56.36232216 146.35083096 42.03963021 152.17364502 27.73443604 C153.13830731 25.36435882 154.10197252 22.99387553 155.06463623 20.62298584 C156.39468573 17.34820284 157.72818243 14.07484864 159.06298828 10.80200195 C159.65330086 9.34741074 159.65330086 9.34741074 160.25553894 7.86343384 C160.79166557 6.55298599 160.79166557 6.55298599 161.33862305 5.21606445 C161.8039016 4.07451904 161.8039016 4.07451904 162.27857971 2.90991211 C163.05908203 1.17700195 163.05908203 1.17700195 164.05908203 0.17700195 C166.07858412 0.07765047 168.10159118 0.04900687 170.12353516 0.04760742 C171.42158081 0.04445526 172.71962646 0.0413031 174.05700684 0.03805542 C175.48478224 0.0398452 176.91255734 0.04189615 178.34033203 0.04418945 C179.79382341 0.04351637 181.24731467 0.04254632 182.70080566 0.04129028 C185.7507433 0.03981349 188.80065169 0.04196725 191.85058594 0.04663086 C195.76838762 0.05232815 199.68612081 0.04904904 203.60391998 0.0430584 C206.60638957 0.03945227 209.6088428 0.0405916 212.61131287 0.04318619 C214.05626941 0.04385531 215.50122742 0.04302753 216.94618225 0.04070663 C218.96233086 0.0381793 220.97848465 0.04271144 222.99462891 0.04760742 C224.71885071 0.04880081 224.71885071 0.04880081 226.47790527 0.05001831 C229.05908203 0.17700195 229.05908203 0.17700195 230.05908203 1.17700195 C230.63277877 7.96254884 229.04248919 12.72959867 226.38720703 18.91918945 C225.80410011 20.32664932 225.80410011 20.32664932 225.20921326 21.76254272 C224.36552306 23.79473014 223.51546653 25.82428371 222.65975952 27.85144043 C220.80050385 32.25712736 218.97298661 36.67577611 217.14286804 41.09362793 C216.18770307 43.39825175 215.23090528 45.70219948 214.27253723 48.00549316 C210.0633237 58.12713006 205.97203493 68.29306181 201.91983032 78.47839355 C199.86909812 83.63229511 197.81174446 88.78355173 195.75439453 93.93481445 C195.31523209 95.03458618 194.87606964 96.13435791 194.42359924 97.26745605 C188.02070841 113.29146018 181.56848981 129.29567074 175.12158203 145.30200195 C174.45581958 146.95504715 173.79005827 148.6080928 173.1242981 150.26113892 C169.76432408 158.60356221 166.40380248 166.94576481 163.04296875 175.2878418 C158.57763668 186.37147483 154.11399474 197.4557883 149.65080261 208.5402832 C146.63878773 216.020498 143.6257981 223.50031749 140.6105957 230.97924805 C139.43188796 233.90320742 138.2532669 236.82720172 137.07470703 239.7512207 C136.78561274 240.46843292 136.49651844 241.18564514 136.19866371 241.92459106 C132.31901729 251.55093406 128.45214703 261.1823107 124.59609985 270.81813049 C122.54669325 275.93916686 120.49345929 281.05866578 118.43924522 286.17777538 C116.79284518 290.28162092 115.15159871 294.38747633 113.51429749 298.49495983 C112.28135702 301.583586 111.04070813 304.6691029 109.80126953 307.75512695 C109.36208191 308.86181229 108.92289429 309.96849762 108.47039795 311.10871887 C108.06251038 312.12028549 107.6546228 313.13185211 107.234375 314.17407227 C106.88438446 315.04944641 106.53439392 315.92482056 106.17379761 316.82672119 C104.98168354 319.34018993 104.04775653 321.21585657 102.05908203 323.17700195 C99.32678223 323.68493652 99.32678223 323.68493652 95.98291016 323.69458008 C94.73151245 323.70718872 93.48011475 323.71979736 92.1907959 323.73278809 C90.82396889 323.72562847 89.45714701 323.71742453 88.09033203 323.70825195 C86.68932831 323.71094653 85.28832642 323.71482866 83.8873291 323.71984863 C80.9517231 323.72574549 78.01660407 323.71717558 75.08105469 323.69848633 C71.31783539 323.67569559 67.55575707 323.68881782 63.79257965 323.71277618 C60.89975383 323.72722973 58.00719859 323.72263046 55.11436462 323.71226501 C53.72688156 323.70959645 52.33937394 323.71287214 50.95191956 323.72218323 C49.01303577 323.73233935 47.07406588 323.71411486 45.13525391 323.69458008 C44.03177612 323.69139771 42.92829834 323.68821533 41.79138184 323.68493652 C39.05908203 323.17700195 39.05908203 323.17700195 37.11682129 321.45715332 C35.36511575 317.68103009 36.72071988 315.1251178 38.06546021 311.35705566 C38.47988373 310.32504028 38.89430725 309.2930249 39.32128906 308.22973633 C40.03004936 306.45560364 40.03004936 306.45560364 40.75312805 304.64562988 C41.27424989 303.35394998 41.79550937 302.06232559 42.31689453 300.77075195 C42.85863278 299.42034352 43.40002275 298.06979531 43.94108582 296.71911621 C45.08962425 293.8541656 46.2408595 290.99031809 47.39395142 288.12719727 C48.88726466 284.41789724 50.37331877 280.70574298 51.8566637 276.9924469 C57.20606927 263.60163175 62.56465102 250.22056005 68.22705078 236.95825195 C68.9505552 235.24681551 69.67371833 233.53523473 70.39648438 231.82348633 C71.66940941 228.81014505 72.97697947 225.81561737 74.30761719 222.82739258 C74.86812431 221.5070331 75.42730602 220.1861098 75.98486328 218.86450195 C76.4635083 217.77524414 76.94215332 216.68598633 77.43530273 215.5637207 C78.31797197 210.77139678 76.90670128 207.58645205 75.05908203 203.17700195 C74.76679214 202.45236755 74.47450226 201.72773315 74.1733551 200.98114014 C73.23810947 198.70826561 72.26690671 196.45380972 71.28564453 194.20043945 C70.92595078 193.36583694 70.56625702 192.53123444 70.19566345 191.67134094 C69.42708342 189.8887368 68.65691789 188.10681554 67.88528442 186.32553101 C65.83237656 181.58544754 63.79212987 176.83991497 61.75048828 172.0949707 C61.34315964 171.14908585 60.93583099 170.20320099 60.51615906 169.22865295 C57.17294737 161.45908396 53.88113035 153.66953404 50.62158203 145.86450195 C49.58396375 143.38136949 48.54626605 140.89827061 47.50830078 138.4152832 C47.24107208 137.77591827 46.97384338 137.13655334 46.69851685 136.47781372 C42.80073041 127.159244 38.8650306 117.85661668 34.93408203 108.55200195 C34.53332458 107.60332245 34.13256714 106.65464294 33.71966553 105.67721558 C32.07929342 101.79414786 30.43885307 97.91110899 28.79821777 94.02815247 C26.31134701 88.14218662 23.82565258 82.25572617 21.34136963 76.3686676 C20.52197152 74.4269881 19.70243268 72.48536799 18.88275146 70.54380798 C16.8784914 65.79610482 14.87613598 61.04761779 12.87792969 56.29736328 C9.20969013 47.58435949 5.51031908 38.88811039 1.71923828 30.2277832 C0.727736 27.94802668 -0.26262282 25.66777735 -1.25253296 23.3873291 C-2.16356056 21.30211908 -3.09053849 19.22452865 -4.01831055 17.14672852 C-4.56106305 15.8980706 -5.10302477 14.64906854 -5.64404297 13.3996582 C-6.11487305 12.33497314 -6.58570313 11.27028809 -7.07080078 10.17333984 C-8.06760993 6.74072517 -7.84676523 4.60713104 -6.94091797 1.17700195 C-5.14281401 -0.62110201 -2.42674901 0.02122214 0 0 Z " fill="#E300FF" transform="translate(1669.94091796875,82.822998046875)"/>
<path d="M0 0 C1.90724098 -0.02398109 1.90724098 -0.02398109 3.85301208 -0.04844666 C5.24713746 -0.05482249 6.64126764 -0.0602155 8.03540039 -0.06469727 C9.46025185 -0.07366045 10.88510231 -0.08278223 12.30995178 -0.09205627 C15.29845469 -0.10855776 18.2868454 -0.11624855 21.27539062 -0.11914062 C25.1070755 -0.12452834 28.937708 -0.16221717 32.76909542 -0.20788479 C35.7124874 -0.23760992 38.65562446 -0.24486315 41.59915352 -0.24586678 C43.01180407 -0.25007762 44.4244548 -0.26254676 45.83695793 -0.28338432 C47.81169875 -0.31019858 49.78681834 -0.30238541 51.76171875 -0.29296875 C52.88597763 -0.2980394 54.01023651 -0.30311005 55.16856384 -0.30833435 C57.94555664 0.30639648 57.94555664 0.30639648 59.71188354 2.56692505 C60.11899567 3.47095062 60.52610779 4.3749762 60.94555664 5.30639648 C61.44668221 6.39160332 61.44668221 6.39160332 61.95793152 7.49873352 C62.25830826 8.23746201 62.558685 8.97619049 62.86816406 9.73730469 C63.21731873 10.59036194 63.56647339 11.44341919 63.9262085 12.32232666 C64.29739807 13.24132751 64.66858765 14.16032837 65.05102539 15.10717773 C65.44727112 16.07911072 65.84351685 17.0510437 66.25177002 18.0524292 C67.54969944 21.23957471 68.84150269 24.42916264 70.13305664 27.61889648 C71.03589947 29.84026412 71.93897808 32.06153595 72.84228516 34.28271484 C79.05654604 49.57860619 85.21463924 64.89692449 91.32128906 80.23608398 C94.45415859 88.10224385 97.60957357 95.95772447 100.82446289 103.79077148 C101.13338974 104.54478745 101.44231659 105.29880341 101.76060486 106.07566833 C103.21345544 109.62089103 104.67127894 113.16389671 106.13867188 116.703125 C106.64743052 117.94188816 107.15598793 119.18073399 107.66430664 120.41967773 C108.32849609 122.02516479 108.32849609 122.02516479 109.00610352 123.66308594 C109.94555664 126.30639648 109.94555664 126.30639648 109.94555664 129.30639648 C110.60555664 129.30639648 111.26555664 129.30639648 111.94555664 129.30639648 C112.12192154 128.68657898 112.29828644 128.06676147 112.47999573 127.42816162 C114.16464328 121.64338249 116.11328575 116.07644744 118.41040039 110.50952148 C118.75209259 109.66981308 119.09378479 108.83010468 119.4458313 107.96495056 C120.587625 105.16047188 121.73540974 102.35848442 122.88305664 99.55639648 C124.581298 95.3922215 126.27561757 91.22645811 127.96899414 87.06030273 C128.42780472 85.93227737 128.8866153 84.80425201 129.35932922 83.64204407 C133.07713865 74.48510215 136.7449697 65.30872707 140.39803123 56.12578201 C141.35666415 53.71616788 142.31596817 51.30682197 143.27546692 48.89755249 C147.09806617 39.29878365 147.09806617 39.29878365 150.91036987 29.69592285 C152.41678858 25.89519051 153.92795144 22.0963781 155.44253159 18.29889107 C156.0059595 16.88348439 156.56753166 15.46733748 157.12717056 14.05042839 C157.89663088 12.1028281 158.67237983 10.15785002 159.44970703 8.21337891 C159.88537491 7.11603928 160.32104279 6.01869965 160.76991272 4.8881073 C161.94555664 2.30639648 161.94555664 2.30639648 163.94555664 0.30639648 C166.60229492 0.0524292 166.60229492 0.0524292 170.01586914 0.04760742 C171.29059082 0.0413031 172.5653125 0.03499878 173.87866211 0.02850342 C175.27596169 0.03208309 176.67326001 0.03618503 178.07055664 0.04077148 C179.49780341 0.03942477 180.92504973 0.03748419 182.35229492 0.03497314 C185.34501509 0.03202214 188.33761595 0.03631866 191.33032227 0.0456543 C195.17072037 0.05704893 199.01083896 0.05048931 202.85122681 0.03850937 C205.79884964 0.03129006 208.74640595 0.033579 211.69403076 0.03876495 C213.11025017 0.04010126 214.52647558 0.03845439 215.94268799 0.03380585 C217.92020557 0.02873974 219.89774426 0.03782741 221.87524414 0.04760742 C223.56496338 0.0499942 223.56496338 0.0499942 225.28881836 0.0524292 C227.94555664 0.30639648 227.94555664 0.30639648 229.94555664 2.30639648 C230.42856907 7.08564621 229.35387888 10.5089287 227.56005859 14.91333008 C227.30362328 15.55120956 227.04718796 16.18908905 226.78298187 16.84629822 C225.92639432 18.96992433 225.055146 21.08720973 224.18383789 23.20483398 C223.56797639 24.72338935 222.95306506 26.24233035 222.33903503 27.7616272 C221.01793184 31.02480318 219.69036703 34.2852448 218.35766602 37.54370117 C216.22961456 42.7469302 214.11580113 47.95586889 212.00415039 53.16577148 C209.44896977 59.46732394 206.89046624 65.76750591 204.32741356 72.06586075 C200.03718504 82.60897206 195.7688883 93.16071378 191.51977539 103.72045898 C191.22548079 104.45179613 190.93118618 105.18313328 190.62797356 105.93663216 C189.15456512 109.59852139 187.68162232 113.26059768 186.20889282 116.92276001 C183.52701253 123.59095046 180.84072564 130.25736614 178.15493584 136.92398262 C171.26161802 154.03510479 164.37206619 171.14774379 157.48278236 188.26049042 C155.55187134 193.05671456 153.62066131 197.85281816 151.68919563 202.64881897 C150.08182176 206.64009889 148.47458846 210.63143541 146.86743164 214.62280273 C146.54782345 215.41654549 146.22821526 216.21028824 145.89892197 217.0280838 C141.4129872 228.16959833 136.93311916 239.31353745 132.45730591 250.4591217 C129.94980431 256.7031669 127.44068877 262.94656318 124.93121147 269.18981457 C122.88750964 274.27471254 120.84596101 279.36046782 118.80605316 284.44688892 C117.54394675 287.5923789 116.27975572 290.73702801 115.01500702 293.88145638 C114.43311275 295.32938757 113.8520686 296.77766078 113.27198029 298.22631645 C103.79881569 321.87976696 103.79881569 321.87976696 100.94555664 323.30639648 C98.99077715 323.41304926 97.03235529 323.45524286 95.07470703 323.4675293 C93.84325455 323.47713684 92.61180206 323.48674438 91.34303284 323.49664307 C89.99309473 323.50149033 88.64315448 323.50576933 87.29321289 323.50952148 C85.91320289 323.51527263 84.53319293 323.52103037 83.15318298 323.52679443 C80.25885648 323.53730292 77.36455774 323.54314678 74.47021484 323.54663086 C70.75988783 323.55211966 67.04992705 323.57615605 63.339715 323.60460281 C60.48899763 323.62321667 57.63836877 323.62843407 54.78759575 323.62996674 C53.41963127 323.63299595 52.05166844 323.64103358 50.6837635 323.65415192 C48.77118293 323.67118649 46.85845156 323.6674911 44.94580078 323.6628418 C43.85707169 323.66648743 42.76834259 323.67013306 41.6466217 323.67388916 C38.94555664 323.30639648 38.94555664 323.30639648 37.00804138 322.22161865 C35.26199196 319.07421105 36.15993692 316.73891815 36.94555664 313.30639648 C37.85595126 310.64112134 38.80712323 308.07091456 39.86962891 305.46948242 C40.16903885 304.71869415 40.46844879 303.96790588 40.77693176 303.19436646 C41.76451582 300.72345096 42.763089 298.25714221 43.76196289 295.79077148 C44.45944818 294.05292672 45.15629061 292.31482382 45.8525238 290.57647705 C47.68867915 285.9975804 49.53439868 281.42259603 51.38189697 276.8482666 C52.8671458 273.1661761 54.34551021 269.48134214 55.82347202 265.79632187 C57.61297066 261.33513362 59.40585887 256.8753105 61.19946289 252.41577148 C61.53096407 251.5911718 61.86246525 250.76657211 62.20401192 249.91698456 C62.85437139 248.30072429 63.50560913 246.68481713 64.15775967 245.06927872 C64.79108995 243.50028196 65.42252025 241.9305168 66.0519495 240.35995102 C67.70547031 236.25988276 69.42505813 232.20310508 71.24240112 228.17272949 C71.61822547 227.32547428 71.99404982 226.47821907 72.38126278 225.60528946 C73.09930916 223.99379053 73.83234222 222.38884943 74.58322239 220.7923851 C77.29831067 214.65553188 77.21662622 210.52883012 75.26307678 204.03923035 C74.99982101 203.44056656 74.73656525 202.84190277 74.46533203 202.22509766 C74.16241241 201.52189896 73.8594928 200.81870026 73.5473938 200.0941925 C73.2160141 199.35339951 72.8846344 198.61260651 72.54321289 197.84936523 C72.19426971 197.04593185 71.84532654 196.24249847 71.48580933 195.41471863 C70.73092092 193.6793738 69.97140548 191.94603583 69.20773315 190.21453857 C67.56120327 186.48051657 65.93765479 182.73664999 64.31306458 178.99304199 C63.46353231 177.03546734 62.61292209 175.07836016 61.76127625 173.1217041 C57.36817666 163.01660137 53.11906106 152.85310484 48.88305664 142.68139648 C47.38552547 139.09106499 45.88665394 135.50129505 44.38696289 131.91186523 C44.01828598 131.0294516 43.64960907 130.14703796 43.26976013 129.23788452 C39.32514094 119.80686565 35.32613964 110.39914835 31.32055664 100.99389648 C24.14892518 84.150481 17.0128311 67.29264777 9.93283081 50.41049194 C7.86699829 45.4883616 5.78666925 40.57259453 3.69754028 35.66030884 C2.28007405 32.32362299 0.86976433 28.98394098 -0.53924561 25.64367676 C-1.20979421 24.05859709 -1.88344362 22.47482519 -2.56036377 20.89245605 C-3.49369833 18.70959247 -4.41589771 16.52233609 -5.33569336 14.33374023 C-5.75158218 13.37240425 -5.75158218 13.37240425 -6.1758728 12.39164734 C-7.6197831 8.92108936 -8.56264127 6.0728666 -8.05444336 2.30639648 C-5.32785558 -0.4201913 -3.81748725 0.03615366 0 0 Z " fill="#E300FF" transform="translate(545.054443359375,82.693603515625)"/>
<path d="M0 0 C2.69470215 -0.3742218 2.69470215 -0.3742218 6.16210938 -0.37231445 C8.10422302 -0.38165764 8.10422302 -0.38165764 10.08557129 -0.39118958 C11.50496809 -0.38250177 12.92436115 -0.37318382 14.34375 -0.36328125 C15.79341634 -0.3627628 17.24308338 -0.36327992 18.69274902 -0.36479187 C21.73260986 -0.36470209 24.77220582 -0.35426065 27.81201172 -0.33618164 C31.71296053 -0.31349402 35.61352212 -0.31294962 39.51451874 -0.31969929 C42.50847834 -0.32303721 45.50234931 -0.31641258 48.49629211 -0.30657005 C49.93483517 -0.30271468 51.37338808 -0.30157123 52.81193542 -0.3031559 C54.82060959 -0.30352581 56.82927086 -0.28944585 58.83789062 -0.2746582 C59.98213501 -0.27005081 61.12637939 -0.26544342 62.30529785 -0.26069641 C65 -0 65 -0 67 2 C67.1878075 4.52976535 67.25191906 6.94907405 67.22705078 9.47900391 C67.22734283 10.24982803 67.22763489 11.02065216 67.22793579 11.81483459 C67.22653974 14.36885745 67.21096579 16.92259046 67.1953125 19.4765625 C67.19158334 21.24490194 67.18873591 23.01324345 67.18673706 24.78158569 C67.17909293 29.44069095 67.15943778 34.09967194 67.1373291 38.75872803 C67.11688744 43.51100992 67.10773894 48.26331184 67.09765625 53.015625 C67.07619259 62.34380466 67.04204728 71.67189201 67 81 C67.72218719 80.99555878 68.44437439 80.99111755 69.18844604 80.98654175 C75.98666022 80.94650625 82.78485684 80.91603662 89.58315849 80.89637566 C93.07843927 80.88592802 96.57362283 80.87175117 100.06884766 80.84912109 C104.08497056 80.82328047 108.10099097 80.81353534 112.1171875 80.8046875 C114.00472244 80.78920364 114.00472244 80.78920364 115.9303894 80.77340698 C117.09144196 80.77325592 118.25249451 80.77310486 119.44873047 80.77294922 C120.47465302 80.768508 121.50057556 80.76406677 122.55758667 80.75949097 C125 81 125 81 127 83 C127.25396729 85.23913574 127.25396729 85.23913574 127.25878906 88.06054688 C127.26509338 89.11504028 127.27139771 90.16953369 127.27789307 91.25598145 C127.27182037 92.97005188 127.27182037 92.97005188 127.265625 94.71875 C127.26753845 95.88756714 127.2694519 97.05638428 127.27142334 98.26062012 C127.27278626 100.73543513 127.26908241 103.21025726 127.26074219 105.68505859 C127.25004446 109.48421205 127.26063418 113.28289259 127.2734375 117.08203125 C127.27211592 119.48177188 127.26955357 121.88151222 127.265625 124.28125 C127.26967346 125.42396362 127.27372192 126.56667725 127.27789307 127.74401855 C127.26843658 129.32575867 127.26843658 129.32575867 127.25878906 130.93945312 C127.25719788 131.8705188 127.25560669 132.80158447 127.25396729 133.76086426 C127 136 127 136 125 138 C122.55758667 138.24050903 122.55758667 138.24050903 119.44873047 138.22705078 C117.70715164 138.22682419 117.70715164 138.22682419 115.9303894 138.22659302 C114.67203278 138.21627045 113.41367615 138.20594788 112.1171875 138.1953125 C110.83264679 138.1924826 109.54810608 138.18965271 108.22463989 138.18673706 C104.80837233 138.17909809 101.39227463 138.15944752 97.97607422 138.1373291 C94.49058327 138.11687624 91.0050649 138.10773655 87.51953125 138.09765625 C80.67961769 138.07620175 73.839817 138.04206271 67 138 C67.00276538 138.94552136 67.00553076 139.89104273 67.00837994 140.86521626 C67.07491482 163.84893178 67.12424692 186.83263486 67.15543652 209.81642628 C67.17091963 220.93111909 67.19203671 232.04574836 67.22631836 243.16040039 C67.25617654 252.84549093 67.27556449 262.53053548 67.28226548 272.21567076 C67.28618382 277.34609176 67.29542237 282.47638113 67.31719017 287.60676003 C67.33749878 292.43215968 67.34384523 297.25737303 67.33932304 302.08281136 C67.34015077 303.85698711 67.34614983 305.63116887 67.35761642 307.40530777 C67.37247276 309.82173161 67.36897909 312.23744571 67.36076355 314.65388489 C67.36950207 315.36108085 67.3782406 316.06827681 67.38724393 316.79690295 C67.36083862 319.65671354 67.31222944 321.55400429 65.6454277 323.93490219 C63.12994019 325.5631963 61.00425734 325.38921774 58.03149414 325.40405273 C56.80334488 325.41673691 55.57519562 325.42942108 54.30982971 325.44248962 C52.96827018 325.44043809 51.62671181 325.43744999 50.28515625 325.43359375 C48.90896852 325.43815486 47.53278308 325.44346022 46.15660095 325.44947815 C43.27235664 325.45841347 40.38838915 325.45598192 37.50415039 325.44604492 C33.81056538 325.43455869 30.1179369 325.45475764 26.42447758 325.48396206 C23.58224939 325.50232264 20.74025044 325.50203194 17.89797783 325.49632454 C16.5364288 325.49617128 15.17486427 325.50221955 13.81337166 325.51461601 C11.90826799 325.52951702 10.00300705 325.51622347 8.09790039 325.50170898 C7.01440811 325.50154282 5.93091583 325.50137665 4.81459045 325.50120544 C1.2450648 324.86556565 0.25022214 323.8010233 -2 321 C-2.49909532 318.46763271 -2.49909532 318.46763271 -2.49777794 315.54986477 C-2.51157433 313.87911393 -2.51157433 313.87911393 -2.52564943 312.17461056 C-2.5153623 310.95098672 -2.50507518 309.72736289 -2.49447632 308.46665955 C-2.49930515 307.16678889 -2.50413398 305.86691824 -2.50910914 304.52765757 C-2.52195228 300.91662738 -2.5097882 297.30604474 -2.49358058 293.69504392 C-2.48043817 289.80202689 -2.49032094 285.90906037 -2.49734497 282.01603699 C-2.50743533 274.38873115 -2.49613808 266.76159855 -2.47764437 259.13431423 C-2.45689294 250.25738633 -2.4570163 241.38049605 -2.45798953 232.50354845 C-2.45899113 216.66858877 -2.44065746 200.83370984 -2.41162109 184.9987793 C-2.38344075 169.62278777 -2.36927972 154.24686731 -2.37060547 138.87084961 C-2.37068538 137.92373212 -2.37076529 136.97661463 -2.37084763 136.00079661 C-2.37092834 135.0553387 -2.37100905 134.10988079 -2.3710922 133.13577265 C-2.37247094 115.64517289 -2.36069781 98.15460341 -2.34278577 80.66401346 C-2.33674626 74.47175219 -2.33462585 68.27949648 -2.33372116 62.08723259 C-2.33235862 54.54495008 -2.32345345 47.00271859 -2.30505554 39.46045773 C-2.29580483 35.6100088 -2.28973396 31.75962523 -2.29224396 27.90916443 C-2.29482906 23.74148878 -2.28197067 19.57400782 -2.26742554 15.40635681 C-2.27052274 14.18050226 -2.27361995 12.9546477 -2.276811 11.69164604 C-2.27036211 10.5804199 -2.26391322 9.46919375 -2.25726891 8.32429409 C-2.25586006 7.36159302 -2.25445121 6.39889195 -2.25299966 5.40701813 C-2 3 -2 3 0 0 Z " fill="#E300FF" transform="translate(792,0)"/>
<path d="M0 0 C1.29474243 -0.00953201 2.58948486 -0.01906403 3.92346191 -0.02888489 C5.34285509 -0.02862349 6.76224828 -0.02768661 8.18164062 -0.02612305 C9.63130822 -0.03000823 11.08097468 -0.03434253 12.53063965 -0.03910828 C15.57043141 -0.04657574 18.61010703 -0.0462752 21.64990234 -0.04101562 C25.55092219 -0.03521644 29.45146795 -0.05215975 33.35240936 -0.0753603 C36.34636223 -0.09007017 39.34020014 -0.09097319 42.33418274 -0.08785057 C43.77274007 -0.08836505 45.21130363 -0.09362644 46.64982605 -0.10366249 C48.65844116 -0.11595677 50.66715176 -0.10731943 52.67578125 -0.09765625 C53.82002563 -0.09828568 54.96427002 -0.0989151 56.14318848 -0.0995636 C57.03244019 0.0239296 57.92169189 0.14742279 58.83789062 0.2746582 C61.07014487 3.62303956 61.08943929 4.69017578 61.09515953 8.59895229 C61.10160842 9.71017844 61.10805732 10.82140458 61.11470163 11.96630424 C61.11005582 13.80508607 61.11005582 13.80508607 61.10531616 15.68101501 C61.10984728 16.97932568 61.11437839 18.27763634 61.11904681 19.61528975 C61.131313 23.22651513 61.13101211 26.83764813 61.12865806 30.44888961 C61.1282508 34.34057991 61.13928019 38.23224022 61.14877319 42.12391663 C61.16540356 49.75096652 61.17088364 57.37798551 61.17199795 65.00505202 C61.17294738 71.20251051 61.17705241 77.39995877 61.1833992 83.59741402 C61.20101652 101.15676614 61.21023721 118.71609379 61.20873825 136.27545481 C61.20865834 137.2225723 61.20857843 138.16968979 61.20849609 139.14550781 C61.20841433 140.09377756 61.20833257 141.04204731 61.20824833 142.01905251 C61.20743511 157.39360151 61.22658071 172.76805262 61.25477283 188.14257329 C61.28347196 203.91766769 61.29731479 219.6927143 61.29558527 235.46783549 C61.29492038 244.32897579 61.30045602 253.19001345 61.32194138 262.05113029 C61.34011408 269.59452776 61.3445328 277.13777606 61.33092253 284.68118589 C61.3243732 288.53183842 61.32434588 292.38220443 61.34162903 296.23283005 C61.36015237 300.40254493 61.34785687 304.57159079 61.33236694 308.74131775 C61.34265407 309.96494158 61.3529412 311.18856542 61.36354005 312.44926876 C61.34974367 314.12001959 61.34974367 314.12001959 61.33566856 315.82452297 C61.3361033 316.78738639 61.33653804 317.75024981 61.33698595 318.74229091 C60.68889117 322.03066877 59.43865151 323.22454456 56.83789062 325.2746582 C54.02330017 325.77586365 54.02330017 325.77586365 50.73999023 325.77636719 C49.50868881 325.78574814 48.27738739 325.79512909 47.0087738 325.80479431 C45.66925357 325.79431709 44.32974006 325.78294822 42.99023438 325.77075195 C41.61308211 325.77090697 40.2359294 325.77239637 38.85877991 325.77516174 C35.97621312 325.7765448 33.09414448 325.76400285 30.21166992 325.74121094 C26.51700002 325.71279902 22.82315593 325.71557168 19.12842464 325.72830105 C16.28622889 325.73525519 13.44422407 325.7274726 10.60205269 325.71504402 C9.23969823 325.71052876 7.87732328 325.71019339 6.51496696 325.71410942 C4.61207578 325.71701935 2.70918842 325.69836274 0.80639648 325.67871094 C-0.81764854 325.67060646 -0.81764854 325.67060646 -2.47450256 325.66233826 C-5.61290894 325.20963158 -6.29284847 324.77194239 -8.16210938 322.2746582 C-8.5370062 319.85251468 -8.5370062 319.85251468 -8.53683949 316.91354275 C-8.54404603 315.79411642 -8.55125257 314.67469008 -8.55867749 313.52134174 C-8.55130321 312.28634105 -8.54392892 311.05134036 -8.53633118 309.77891541 C-8.54030558 308.47102651 -8.54427999 307.16313761 -8.54837483 305.81561571 C-8.55899202 302.17766633 -8.55081327 298.53996155 -8.53962433 294.90202272 C-8.5308032 290.98174414 -8.53921974 287.0614983 -8.54548645 283.14122009 C-8.55498845 275.45866445 -8.54836253 267.77620255 -8.53622351 260.09365385 C-8.52262304 251.15424154 -8.52423961 242.21485172 -8.52635684 233.2754317 C-8.52954872 217.33008622 -8.51786722 201.38478537 -8.49829102 185.43945312 C-8.47928281 169.95278565 -8.47220405 154.46617049 -8.4777832 138.97949219 C-8.48383529 122.13010976 -8.48367466 105.28075035 -8.47229737 88.43136984 C-8.47109003 86.636193 -8.46988405 84.84101615 -8.46867943 83.04583931 C-8.46807589 82.16249041 -8.46747235 81.27914151 -8.46685052 80.36902447 C-8.4629646 74.13171962 -8.46336759 67.89442332 -8.46526527 61.65711784 C-8.46738314 54.06098833 -8.46219421 46.46490473 -8.44765172 38.86878818 C-8.44038743 34.99011376 -8.43634795 31.11150635 -8.44089508 27.23282623 C-8.44569534 23.0362899 -8.43509518 18.83993837 -8.42280579 14.64341736 C-8.42658511 13.40618595 -8.43036443 12.16895453 -8.43425828 10.89423126 C-8.42842609 9.77741268 -8.4225939 8.66059409 -8.41658497 7.50993252 C-8.41571819 6.54023413 -8.41485141 5.57053574 -8.41395837 4.57145256 C-7.84822193 -0.58790992 -4.3132642 0.0173677 0 0 Z " fill="#E300FF" transform="translate(460.162109375,-0.274658203125)"/>
</svg>
